<svg width="236" height="221" viewBox="0 0 236 221" fill="none" xmlns="http://www.w3.org/2000/svg">
<mask id="mask0_204_11" style="mask-type:alpha" maskUnits="userSpaceOnUse" x="0" y="0" width="236" height="221">
<rect width="236" height="221" fill="#03D2C8"/>
</mask>
<g mask="url(#mask0_204_11)">
<path d="M91.2913 90.9333C91.2585 120.952 91.193 150.939 91.193 180.925C72.5581 181.056 53.8904 181.22 35.2884 181.384C24.7571 181.483 14.1931 181.68 3.62901 181.811C2.54636 180.728 1.43089 179.613 0.348237 178.53C0.413853 176.627 0.512236 174.692 0.512236 172.789C0.643465 145.493 0.741808 118.164 0.840229 90.835C18.1299 90.7366 35.4198 90.5727 52.7095 90.5398C65.5701 90.5398 78.4308 90.7366 91.2915 90.8678L91.2913 90.9333Z" fill="white" fill-opacity="0.2"/>
<path d="M91.2921 90.9328C78.4314 90.8015 65.5708 90.6048 52.7101 90.6048C35.4204 90.6376 18.1307 90.8017 0.841038 90.9001C0.742615 67.9675 0.70982 45.0349 0.545783 22.1022C0.480168 17.0498 0.906742 12.1614 2.87521 7.43705L8.61657 1.69569C13.7346 -0.0103149 19.0495 -0.272764 24.3972 -0.239957C46.8705 -0.0759191 69.4095 -0.0430284 91.8828 0.0553936C91.7844 10.3898 91.5875 20.7572 91.6203 31.0916C91.6531 50.8091 91.7842 70.5592 91.8826 90.3422L91.686 90.7359L91.2921 90.9328Z" fill="white" fill-opacity="0.2"/>
<path d="M91.884 181.68C120.394 181.581 148.904 181.483 177.381 181.286C180.924 181.286 182.04 182.795 182.073 186.174C181.974 209.304 182.138 232.433 181.875 255.53C181.744 265.7 174.789 272.065 164.225 272.131C142.834 272.262 121.444 272.196 100.086 272.229C98.1831 272.229 96.3131 272.524 94.4431 272.688C93.3604 271.606 92.245 270.49 91.1623 269.408C91.2935 255.563 91.3917 241.685 91.523 227.84C91.6542 212.421 91.7856 197.066 91.9168 181.647L91.884 181.68Z" fill="white" fill-opacity="0.2"/>
<path d="M91.8827 181.68C91.7514 197.099 91.62 212.453 91.4888 227.873C91.3576 241.718 91.2594 255.595 91.1281 269.44C61.9292 240.241 32.7631 211.075 3.56421 181.876C14.1283 181.745 24.6921 181.548 35.2234 181.45C53.8582 181.253 72.4931 181.122 91.128 180.991C91.3904 181.187 91.653 181.45 91.8498 181.712L91.8827 181.68Z" fill="white" fill-opacity="0.2"/>
<path d="M91.8828 90.3431C91.7844 70.6256 91.6533 50.8756 91.6205 31.0925C91.5877 20.758 91.7846 10.3907 91.883 0.0562437C121.64 -0.0421803 151.462 -0.140659 181.251 -0.206274C181.579 -0.206274 181.907 0.121883 182.203 0.285922C182.17 30.1738 182.17 60.0944 182.137 89.9823C181.875 90.1135 181.711 90.3432 181.612 90.6385C153.594 90.5728 125.577 90.5727 97.5587 90.5071C95.6559 90.5071 93.753 90.3761 91.8502 90.3105L91.8828 90.3431Z" fill="white" fill-opacity="0.2"/>
<path d="M181.646 90.6708C181.744 90.3755 181.875 90.1786 182.17 90.0146C212.124 90.7692 242.11 90.5724 272.097 90.0474C273.409 91.5566 272.785 93.3611 272.818 95.0343C272.851 117.18 272.851 139.357 272.786 161.535C272.753 175.019 266.454 181.253 252.904 181.286C231.48 181.319 210.09 181.187 188.699 181.45C183.745 181.483 182.006 180.269 182.039 175.052C182.236 147.887 182.039 120.723 181.974 93.5579C181.941 92.6065 181.777 91.6551 181.613 90.7036L181.646 90.6708Z" fill="white" fill-opacity="0.2"/>
<path d="M272.095 90.0451C242.109 90.57 212.122 90.7668 182.169 90.0122C182.169 60.0915 182.202 30.2038 182.235 0.315893C192.766 10.716 203.396 21.0831 213.861 31.5488C233.316 51.0038 252.673 70.5573 272.128 90.0779L272.095 90.0451Z" fill="white" fill-opacity="0.2"/>
</g>
</svg>
