<svg width="180" height="192" viewBox="0 0 180 192" fill="none" xmlns="http://www.w3.org/2000/svg">
<mask id="mask0_239_12" style="mask-type:alpha" maskUnits="userSpaceOnUse" x="0" y="0" width="180" height="192">
<rect width="180" height="192" fill="#454080"/>
</mask>
<g mask="url(#mask0_239_12)">
<path d="M109.179 70.5328C109.204 93.5277 109.254 116.498 109.254 139.467C123.528 139.568 137.828 139.694 152.077 139.819C160.144 139.895 168.237 140.046 176.329 140.146C177.158 139.317 178.013 138.462 178.842 137.633C178.792 136.175 178.716 134.692 178.716 133.235C178.616 112.326 178.54 91.3916 178.465 70.4574C165.221 70.3821 151.977 70.2565 138.733 70.2314C128.881 70.2314 119.03 70.3821 109.178 70.4826L109.179 70.5328Z" fill="white" fill-opacity="0.05"/>
<path d="M109.178 70.5324C119.029 70.4319 128.881 70.2811 138.732 70.2811C151.976 70.3063 165.22 70.432 178.464 70.5074C178.54 52.9408 178.565 35.3741 178.691 17.8075C178.741 13.9373 178.414 10.1927 176.906 6.57381L172.508 2.17587C168.588 0.869056 164.517 0.668018 160.42 0.693149C143.205 0.818804 125.94 0.843999 108.725 0.919392C108.801 8.83569 108.952 16.7772 108.927 24.6935C108.901 39.7973 108.801 54.926 108.726 70.0801L108.876 70.3816L109.178 70.5324Z" fill="white" fill-opacity="0.05"/>
<path d="M108.725 140.045C86.8856 139.97 65.0468 139.895 43.2331 139.744C40.5189 139.744 39.6643 140.9 39.6392 143.488C39.7146 161.206 39.5891 178.923 39.7901 196.616C39.8906 204.406 45.2183 209.282 53.3105 209.332C69.696 209.432 86.0814 209.382 102.442 209.407C103.899 209.407 105.332 209.633 106.764 209.759C107.594 208.93 108.448 208.075 109.277 207.246C109.177 196.641 109.102 186.01 109.001 175.405C108.901 163.593 108.8 151.832 108.699 140.02L108.725 140.045Z" fill="white" fill-opacity="0.05"/>
<path d="M108.726 140.045C108.826 151.857 108.927 163.618 109.027 175.43C109.128 186.035 109.203 196.666 109.304 207.271C131.67 184.904 154.012 162.563 176.378 140.196C168.286 140.096 160.194 139.945 152.127 139.869C137.853 139.719 123.578 139.618 109.304 139.518C109.103 139.668 108.902 139.869 108.751 140.071L108.726 140.045Z" fill="white" fill-opacity="0.05"/>
<path d="M108.725 70.0806C108.801 54.9768 108.901 39.8481 108.926 24.694C108.951 16.7777 108.801 8.83625 108.725 0.919958C85.9314 0.844564 63.0874 0.769128 40.2683 0.718866C40.017 0.718866 39.7656 0.970238 39.5394 1.09589C39.5646 23.9903 39.5646 46.9098 39.5897 69.8042C39.7908 69.9047 39.9164 70.0807 39.9918 70.3069C61.4537 70.2566 82.9157 70.2565 104.378 70.2062C105.835 70.2062 107.293 70.1059 108.75 70.0556L108.725 70.0806Z" fill="white" fill-opacity="0.05"/>
<path d="M39.9662 70.3317C39.8909 70.1055 39.7904 69.9547 39.5642 69.829C16.6195 70.407 -6.35038 70.2563 -29.3202 69.8542C-30.3254 71.0102 -29.8479 72.3925 -29.873 73.6741C-29.8981 90.6376 -29.8983 107.626 -29.848 124.615C-29.8229 134.944 -24.9975 139.719 -14.6184 139.744C1.7922 139.769 18.1777 139.668 34.5632 139.869C38.358 139.894 39.6898 138.965 39.6647 134.969C39.5139 114.16 39.6647 93.3518 39.715 72.5432C39.7401 71.8144 39.8657 71.0856 39.9914 70.3568L39.9662 70.3317Z" fill="white" fill-opacity="0.05"/>
<path d="M-29.319 69.8523C-6.34919 70.2544 16.6207 70.4052 39.5654 69.8272C39.5654 46.9076 39.5402 24.0133 39.5151 1.11885C31.448 9.08541 23.3057 17.0267 15.2888 25.0435C0.386097 39.9463 -14.4414 54.9245 -29.3442 69.8775L-29.319 69.8523Z" fill="white" fill-opacity="0.05"/>
</g>
</svg>
