<svg width="64" height="19" viewBox="0 0 64 19" fill="none" xmlns="http://www.w3.org/2000/svg">
<path d="M11.49 9.81994C14.64 9.81994 16.27 11.6499 17.58 13.1299C18.75 14.4499 19.68 15.4899 21.56 15.4899C23.44 15.4899 24.36 14.4499 25.53 13.1299C26.84 11.6599 28.47 9.81994 31.62 9.81994C34.77 9.81995 36.4 11.6499 37.71 13.1299C38.88 14.4499 39.8 15.4899 41.69 15.4899C43.58 15.4899 44.49 14.4499 45.66 13.1299C46.97 11.6599 48.6 9.81995 51.75 9.81995C54.9 9.81995 56.53 11.6499 57.84 13.1299C59.01 14.4499 59.93 15.4899 61.82 15.4899C62.6 15.4899 63.24 16.12 63.24 16.91C63.24 17.7 62.61 18.33 61.82 18.33C58.67 18.33 57.04 16.4999 55.73 15.0199C54.56 13.6999 53.64 12.66 51.75 12.66C49.86 12.66 48.94 13.6999 47.78 15.0199C46.47 16.4899 44.84 18.33 41.69 18.33C38.54 18.33 36.91 16.4999 35.6 15.0199C34.43 13.6999 33.51 12.66 31.62 12.66C29.73 12.66 28.81 13.6999 27.65 15.0199C26.34 16.4899 24.71 18.33 21.56 18.33C18.41 18.33 16.78 16.4999 15.47 15.0199C14.3 13.6999 13.37 12.66 11.49 12.66C9.60999 12.66 8.68001 13.6999 7.51001 15.0199C6.20001 16.4899 4.57001 18.33 1.42001 18.33C0.640014 18.33 -3.44446e-07 17.7 -3.09914e-07 16.91C-2.75382e-07 16.12 0.630012 15.4899 1.42001 15.4899C3.30001 15.4899 4.23 14.4499 5.39999 13.1299C6.71 11.6599 8.33999 9.81994 11.49 9.81994Z" fill="white"/>
<path d="M11.49 -2.26206e-06C14.64 -2.12437e-06 16.27 1.83 17.58 3.31C18.75 4.63 19.68 5.67 21.56 5.67C23.44 5.67 24.36 4.63 25.53 3.31C26.84 1.84 28.47 -1.51984e-06 31.62 -1.38215e-06C34.77 -1.24446e-06 36.4 1.83 37.71 3.31C38.88 4.63 39.8 5.67 41.69 5.67C43.58 5.67 44.49 4.63 45.66 3.31C46.97 1.84 48.6 -6.39934e-07 51.75 -5.02243e-07C54.9 -3.64553e-07 56.53 1.83 57.84 3.31C59.01 4.63 59.93 5.67 61.82 5.67C62.6 5.67 63.24 6.3 63.24 7.09C63.24 7.88 62.61 8.50999 61.82 8.50999C58.67 8.50999 57.04 6.68 55.73 5.2C54.56 3.88 53.64 2.84 51.75 2.84C49.86 2.84 48.94 3.88 47.78 5.2C46.47 6.67 44.84 8.50999 41.69 8.50999C38.54 8.50999 36.91 6.68 35.6 5.2C34.43 3.88 33.51 2.84 31.62 2.83999C29.73 2.83999 28.81 3.88 27.65 5.2C26.34 6.67 24.71 8.50999 21.56 8.50999C18.41 8.50999 16.78 6.67999 15.47 5.19999C14.3 3.87999 13.37 2.83999 11.49 2.83999C9.60999 2.83999 8.68001 3.87999 7.51001 5.19999C6.20001 6.66999 4.57001 8.50999 1.42001 8.50999C0.640014 8.50999 -3.44446e-07 7.87999 -3.09914e-07 7.08999C-2.75382e-07 6.29999 0.630012 5.67 1.42001 5.67C3.30001 5.67 4.23 4.63 5.39999 3.31C6.71 1.84 8.33999 -2.39976e-06 11.49 -2.26206e-06Z" fill="white"/>
</svg>
