<svg width="22" height="17" viewBox="0 0 22 17" fill="none" xmlns="http://www.w3.org/2000/svg">
<path d="M12.6462 10.5571C12.1071 10.9165 11.4808 11.1065 10.8352 11.1065C10.1896 11.1065 9.56331 10.9165 9.02418 10.5571L0.144286 4.63701C0.0950194 4.60417 0.047023 4.56992 0 4.53471V14.2355C0 15.3477 0.902579 16.2304 1.9949 16.2304H19.6754C20.7876 16.2304 21.6703 15.3278 21.6703 14.2355V4.53467C21.6232 4.56997 21.5751 4.60429 21.5257 4.63718L12.6462 10.5571Z" fill="white"/>
<path d="M0.848615 3.58035L9.72851 9.50051C10.0647 9.72462 10.4499 9.83665 10.8351 9.83665C11.2204 9.83665 11.6057 9.72457 11.9418 9.50051L20.8217 3.58035C21.3531 3.2263 21.6704 2.63375 21.6704 1.99422C21.6704 0.89458 20.7757 0 19.6761 0H1.99422C0.894622 4.23249e-05 0 0.894622 0 1.99528C0 2.63375 0.317268 3.2263 0.848615 3.58035Z" fill="white"/>
</svg>
