<svg width="87" height="95" viewBox="0 0 87 95" fill="none" xmlns="http://www.w3.org/2000/svg">
<mask id="mask0_229_23" style="mask-type:alpha" maskUnits="userSpaceOnUse" x="0" y="0" width="87" height="95">
<rect width="87" height="95" fill="#62C0AB"/>
</mask>
<g mask="url(#mask0_229_23)">
<path d="M59.46 95.94C58.45 95.94 58.02 93.2 57.14 84.38C56.71 80.08 56.13 74.21 55.49 73.61C54.71 74.04 52.81 79.74 51.42 83.91C48.61 92.32 47.64 94.74 46.68 94.51C45.7 94.29 45.89 91.52 46.99 82.77C47.53 78.46 48.27 72.59 47.78 71.86C46.93 72.11 43.81 77.22 41.53 80.96C36.9 88.55 35.41 90.69 34.52 90.26C33.62 89.83 34.42 87.18 37.44 78.91C38.94 74.82 40.98 69.24 40.66 68.42C39.78 68.48 35.61 72.75 32.56 75.88C26.34 82.26 24.42 84.02 23.63 83.4C22.84 82.77 24.14 80.5 28.99 73.01C31.36 69.35 34.6 64.35 34.46 63.47C33.58 63.33 28.59 66.57 24.93 68.94C17.44 73.79 15.16 75.09 14.54 74.3C13.91 73.52 15.68 71.59 22.06 65.37C25.19 62.32 29.46 58.15 29.52 57.27C28.71 56.95 23.12 58.99 19.03 60.48C10.76 63.51 8.11999 64.3 7.67999 63.4C7.24999 62.5 9.39001 61.02 16.98 56.39C20.72 54.1 25.83 50.99 26.08 50.14C25.35 49.65 19.48 50.38 15.17 50.93C6.41001 52.03 3.64999 52.22 3.42999 51.24C3.20999 50.27 5.62 49.31 14.03 46.5C18.2 45.11 23.9 43.21 24.33 42.43C23.73 41.79 17.86 41.2 13.56 40.78C4.75 39.9 2 39.47 2 38.46C2 37.45 4.74 37.02 13.56 36.14C17.86 35.71 23.73 35.13 24.33 34.49C23.9 33.71 18.2 31.81 14.03 30.42C5.62 27.61 3.20999 26.65 3.42999 25.68C3.64999 24.7 6.41999 24.89 15.18 25.99C19.49 26.53 25.36 27.27 26.09 26.78C25.84 25.93 20.73 22.81 16.99 20.53C9.39999 15.9 7.26 14.41 7.69 13.52C8.13 12.62 10.77 13.42 19.04 16.44C23.13 17.94 28.71 19.98 29.53 19.66C29.47 18.78 25.2 14.61 22.07 11.56C15.69 5.34 13.93 3.41 14.55 2.63C15.17 1.85 17.57 3.20999 24.94 7.98999C28.6 10.36 33.59 13.59 34.47 13.46C34.61 12.59 31.37 7.58999 29 3.92999C24.15 -3.56001 22.85 -5.83999 23.64 -6.45999C24.42 -7.08999 26.35 -5.33 32.57 1.06C35.62 4.19 39.79 8.46002 40.67 8.52002C40.99 7.70002 38.95 2.12 37.46 -1.97C34.43 -10.24 33.64 -12.88 34.54 -13.32C35.44 -13.76 36.92 -11.61 41.55 -4.01999C43.84 -0.279989 46.95 4.83002 47.8 5.08002C48.3 4.35002 47.56 -1.51999 47.01 -5.82999C45.91 -14.59 45.72 -17.35 46.7 -17.57C47.68 -17.8 48.63 -15.38 51.44 -6.97C52.83 -2.79 54.73 2.90002 55.51 3.33002C56.15 2.73002 56.73 -3.14 57.16 -7.44C58.04 -16.25 58.47 -19 59.48 -19C60.49 -19 60.92 -16.26 61.8 -7.44C62.23 -3.14 62.81 2.73002 63.45 3.33002C64.23 2.90002 66.13 -2.8 67.52 -6.97C70.33 -15.38 71.3 -17.8 72.26 -17.57C73.24 -17.35 73.05 -14.58 71.95 -5.82001C71.41 -1.51001 70.67 4.36003 71.16 5.09003C72.01 4.84003 75.13 -0.27001 77.41 -4.01001C82.04 -11.6 83.53 -13.74 84.42 -13.31C85.32 -12.88 84.52 -10.23 81.5 -1.95999C80 2.13001 77.96 7.71003 78.28 8.53003C79.16 8.47003 83.33 4.20001 86.38 1.07001C92.6 -5.30999 94.53 -7.07001 95.31 -6.45001C96.1 -5.82001 94.8 -3.55 89.95 3.94C87.58 7.6 84.34 12.6 84.48 13.47C85.35 13.6 90.35 10.37 94.01 8C101.5 3.15 103.78 1.85001 104.4 2.64001C105.03 3.42001 103.26 5.35001 96.88 11.57C93.75 14.62 89.48 18.79 89.42 19.67C90.24 19.99 95.82 17.95 99.91 16.46C108.18 13.43 110.82 12.63 111.26 13.54C111.69 14.44 109.55 15.92 101.96 20.55C98.22 22.84 93.11 25.95 92.86 26.8C93.59 27.29 99.46 26.56 103.77 26.01C112.53 24.91 115.29 24.72 115.51 25.7C115.73 26.67 113.32 27.63 104.91 30.44C100.73 31.83 95.04 33.73 94.61 34.51C95.21 35.15 101.08 35.73 105.38 36.16C114.19 37.04 116.94 37.47 116.94 38.48C116.94 39.49 114.2 39.92 105.38 40.8C101.08 41.23 95.21 41.81 94.61 42.45C95.04 43.23 100.74 45.13 104.91 46.52C113.32 49.33 115.73 50.29 115.51 51.26C115.29 52.24 112.53 52.05 103.77 50.95C99.46 50.41 93.59 49.67 92.86 50.16C93.11 51.01 98.22 54.13 101.96 56.41C109.55 61.04 111.69 62.52 111.26 63.42C110.83 64.32 108.18 63.52 99.91 60.5C95.82 59 90.25 56.96 89.42 57.28C89.48 58.16 93.75 62.33 96.88 65.38C103.26 71.6 105.02 73.53 104.4 74.31C103.77 75.09 101.5 73.8 94.01 68.95C90.35 66.58 85.36 63.35 84.47 63.48C84.34 64.35 87.57 69.35 89.94 73.01C94.79 80.5 96.09 82.78 95.3 83.4C94.52 84.02 92.59 82.27 86.37 75.88C83.32 72.75 79.15 68.48 78.27 68.42C77.95 69.24 79.99 74.82 81.48 78.91C84.51 87.18 85.3 89.82 84.4 90.26C83.5 90.69 82.02 88.55 77.39 80.96C75.1 77.22 71.99 72.11 71.14 71.86C70.64 72.59 71.38 78.46 71.93 82.77C73.03 91.53 73.22 94.29 72.24 94.51C71.25 94.74 70.31 92.32 67.5 83.91C66.11 79.74 64.21 74.04 63.43 73.61C62.79 74.21 62.2 80.08 61.78 84.38C60.9 93.19 60.47 95.94 59.46 95.94ZM55.5 72.96C55.5 72.96 55.54 72.96 55.56 72.96C56.5 73.07 56.92 75.75 57.78 84.32C58.21 88.68 58.81 94.62 59.47 95.27C60.13 94.62 60.72 88.68 61.16 84.32C62.01 75.75 62.43 73.06 63.38 72.96C64.35 72.87 65.36 75.42 68.13 83.71C69.49 87.79 71.34 93.34 72.11 93.86C72.6 93.06 71.86 87.17 71.31 82.85C70.23 74.28 70.04 71.56 70.94 71.24C71.84 70.92 73.41 73.18 77.95 80.63C80.2 84.31 83.26 89.33 84.13 89.66C84.42 88.77 82.39 83.22 80.89 79.14C77.91 71 77.11 68.39 77.93 67.88C78.75 67.36 80.77 69.22 86.84 75.45C89.86 78.55 93.97 82.76 94.9 82.89C94.98 81.96 91.78 77.01 89.42 73.37C84.7 66.08 83.34 63.71 84.02 63.03C84.7 62.35 87.08 63.71 94.37 68.43C97.96 70.76 102.83 73.91 103.85 73.91C103.86 73.91 103.88 73.91 103.89 73.91C103.76 72.99 99.55 68.87 96.45 65.85C90.22 59.78 88.37 57.76 88.88 56.94C89.39 56.13 92.01 56.93 100.14 59.9C104.22 61.39 109.78 63.42 110.66 63.14C110.33 62.27 105.32 59.21 101.63 56.96C94.19 52.42 91.93 50.86 92.25 49.95C92.57 49.05 95.29 49.24 103.86 50.32C108.19 50.86 114.07 51.61 114.87 51.12C114.35 50.35 108.8 48.5 104.72 47.14C96.43 44.37 93.86 43.36 93.97 42.39C94.08 41.45 96.76 41.03 105.33 40.17C109.69 39.74 115.63 39.14 116.29 38.48C115.64 37.82 109.7 37.23 105.33 36.79C96.76 35.94 94.08 35.52 93.97 34.57C93.86 33.6 96.43 32.59 104.72 29.82C108.8 28.46 114.35 26.61 114.87 25.84C114.07 25.35 108.18 26.09 103.86 26.64C95.28 27.72 92.57 27.91 92.25 27.01C91.93 26.1 94.2 24.54 101.64 20C105.32 17.75 110.34 14.69 110.67 13.82C109.78 13.54 104.23 15.56 100.15 17.06C92.01 20.04 89.4 20.83 88.89 20.02C88.38 19.2 90.23 17.18 96.46 11.11C99.56 8.08999 103.77 3.97999 103.9 3.04999C102.96 2.94999 98.02 6.17003 94.38 8.53003C87.09 13.25 84.71 14.61 84.04 13.93C83.36 13.25 84.72 10.87 89.44 3.58002C91.8 -0.059983 95.01 -5.01 94.92 -5.94C94 -5.82 89.88 -1.6 86.86 1.5C80.79 7.73 78.77 9.58001 77.95 9.07001C77.14 8.56001 77.94 5.94 80.91 -2.19C82.4 -6.27 84.44 -11.82 84.15 -12.71C83.28 -12.38 80.22 -7.36999 77.97 -3.67999C73.43 3.76001 71.87 6.03001 70.96 5.70001C70.06 5.38001 70.25 2.66 71.33 -5.91C71.87 -10.24 72.62 -16.12 72.13 -16.92C71.36 -16.4 69.51 -10.85 68.15 -6.76999C65.38 1.52001 64.37 4.08998 63.4 3.97998C62.46 3.86998 62.04 1.18999 61.18 -7.38C60.75 -11.74 60.15 -17.68 59.49 -18.34C58.83 -17.69 58.24 -11.75 57.8 -7.38C56.95 1.18999 56.53 3.86998 55.58 3.97998C54.62 4.08998 53.6 1.52001 50.83 -6.76999C49.47 -10.85 47.62 -16.4 46.85 -16.92C46.36 -16.12 47.1 -10.23 47.65 -5.91C48.73 2.66 48.92 5.38001 48.02 5.70001C47.1 6.02001 45.55 3.76 41.01 -3.69C38.76 -7.37 35.7 -12.39 34.83 -12.72C34.54 -11.83 36.57 -6.28001 38.07 -2.20001C41.05 5.93999 41.85 8.55 41.03 9.06C40.21 9.58 38.19 7.71999 32.12 1.48999C29.1 -1.61001 24.99 -5.82001 24.07 -5.95001C23.99 -5.02001 27.19 -0.0699928 29.55 3.57001C34.27 10.86 35.63 13.23 34.95 13.91C34.27 14.59 31.89 13.23 24.6 8.51001C20.96 6.15001 16 2.92 15.08 3.03C15.21 3.95 19.42 8.06003 22.52 11.09C28.75 17.16 30.6 19.18 30.09 20C29.58 20.81 26.96 20.01 18.83 17.04C14.75 15.55 9.19 13.52 8.31 13.8C8.64 14.67 13.65 17.73 17.34 19.98C24.78 24.52 27.04 26.08 26.72 26.99C26.4 27.89 23.69 27.7 15.11 26.62C10.78 26.08 4.90001 25.33 4.10001 25.82C4.62001 26.59 10.17 28.44 14.25 29.8C22.54 32.57 25.11 33.58 25 34.55C24.89 35.49 22.21 35.91 13.64 36.77C9.28001 37.2 3.33999 37.8 2.67999 38.46C3.32999 39.12 9.27001 39.71 13.64 40.15C22.21 41 24.9 41.42 25 42.37C25.11 43.34 22.54 44.35 14.25 47.12C10.17 48.48 4.62001 50.33 4.10001 51.1C4.90001 51.59 10.79 50.85 15.11 50.3C23.68 49.22 26.4 49.03 26.72 49.93C27.04 50.84 24.77 52.4 17.33 56.94C13.65 59.19 8.63002 62.25 8.30002 63.12C9.19002 63.41 14.74 61.38 18.82 59.88C26.95 56.9 29.57 56.11 30.08 56.92C30.59 57.74 28.74 59.76 22.51 65.83C19.41 68.85 15.2 72.96 15.07 73.89C15.08 73.89 15.09 73.89 15.11 73.89C16.13 73.89 21 70.73 24.59 68.41C31.88 63.69 34.25 62.33 34.93 63.01C35.61 63.69 34.25 66.07 29.53 73.36C27.17 77 23.97 81.95 24.05 82.88C24.97 82.75 29.08 78.54 32.1 75.44C38.17 69.21 40.19 67.35 41.01 67.87C41.82 68.38 41.02 71 38.05 79.13C36.56 83.21 34.52 88.76 34.81 89.65C35.68 89.32 38.74 84.31 40.99 80.62C45.53 73.18 47.09 70.91 48 71.24C48.9 71.56 48.71 74.28 47.63 82.85C47.09 87.18 46.34 93.06 46.83 93.86C47.6 93.34 49.45 87.79 50.81 83.71C53.52 75.58 54.55 72.96 55.5 72.96Z" fill="white"/>
</g>
</svg>
