<svg width="64" height="21" viewBox="0 0 64 21" fill="none" xmlns="http://www.w3.org/2000/svg">
<path d="M51.75 8.51C48.6 8.51 46.97 6.68 45.66 5.2C44.49 3.88 43.56 2.84 41.68 2.84C39.8 2.84 38.88 3.88 37.71 5.2C36.4 6.67 34.77 8.51 31.62 8.51C28.47 8.51 26.84 6.68 25.53 5.2C24.36 3.88 23.44 2.84 21.55 2.84C19.66 2.84 18.75 3.88 17.58 5.2C16.27 6.67 14.64 8.51 11.49 8.51C8.34002 8.51 6.71001 6.68 5.40001 5.2C4.23001 3.88 3.31001 2.84 1.42001 2.84C0.640013 2.84 0 2.21 0 1.42C0 0.629998 0.630013 0 1.42001 0C4.57001 0 6.20001 1.83 7.51001 3.31C8.68001 4.63 9.60002 5.67 11.49 5.67C13.38 5.67 14.3 4.63 15.46 3.31C16.77 1.84 18.4 0 21.55 0C24.7 0 26.33 1.83 27.64 3.31C28.81 4.63 29.73 5.67 31.62 5.67C33.51 5.67 34.43 4.63 35.59 3.31C36.9 1.84 38.53 0 41.68 0C44.83 0 46.46 1.83 47.77 3.31C48.94 4.63 49.87 5.67 51.75 5.67C53.63 5.67 54.56 4.63 55.73 3.31C57.04 1.84 58.67 0 61.82 0C62.6 0 63.24 0.629998 63.24 1.42C63.24 2.21 62.61 2.84 61.82 2.84C59.94 2.84 59.01 3.88 57.84 5.2C56.53 6.67 54.9 8.51 51.75 8.51Z" fill="white"/>
<path d="M51.75 20.76C48.6 20.76 46.97 18.93 45.66 17.45C44.49 16.13 43.56 15.09 41.68 15.09C39.8 15.09 38.88 16.13 37.71 17.45C36.4 18.92 34.77 20.76 31.62 20.76C28.47 20.76 26.84 18.93 25.53 17.45C24.36 16.13 23.44 15.09 21.55 15.09C19.66 15.09 18.75 16.13 17.58 17.45C16.27 18.92 14.64 20.76 11.49 20.76C8.34002 20.76 6.71001 18.93 5.40001 17.45C4.23001 16.13 3.31001 15.09 1.42001 15.09C0.640013 15.09 0 14.46 0 13.67C0 12.88 0.630013 12.25 1.42001 12.25C4.57001 12.25 6.20001 14.08 7.51001 15.56C8.68001 16.88 9.60002 17.92 11.49 17.92C13.38 17.92 14.3 16.88 15.46 15.56C16.77 14.09 18.4 12.25 21.55 12.25C24.7 12.25 26.33 14.08 27.64 15.56C28.81 16.88 29.73 17.92 31.62 17.92C33.51 17.92 34.43 16.88 35.59 15.56C36.9 14.09 38.53 12.25 41.68 12.25C44.83 12.25 46.46 14.08 47.77 15.56C48.94 16.88 49.87 17.92 51.75 17.92C53.63 17.92 54.56 16.88 55.73 15.56C57.04 14.09 58.67 12.25 61.82 12.25C62.6 12.25 63.24 12.88 63.24 13.67C63.24 14.46 62.61 15.09 61.82 15.09C59.94 15.09 59.01 16.13 57.84 17.45C56.53 18.92 54.9 20.76 51.75 20.76Z" fill="white"/>
</svg>
