<svg width="72" height="170" viewBox="0 0 72 170" fill="none" xmlns="http://www.w3.org/2000/svg">
<mask id="mask0_230_50" style="mask-type:alpha" maskUnits="userSpaceOnUse" x="0" y="0" width="72" height="170">
<rect width="72" height="170" fill="#81027D"/>
</mask>
<g mask="url(#mask0_230_50)">
<path d="M-4.46259 123.05L1.07601 168.89L4.84412 168.23L-2.74651 122.75C-3.31854 122.86 -3.89058 122.96 -4.47168 123.05H-4.46259Z" fill="white"/>
<path d="M0.921447 121.79L12.8976 166.12L16.5386 164.82L2.58305 121.21C2.03827 121.42 1.48439 121.62 0.921447 121.8V121.79Z" fill="white"/>
<path d="M7.59524 118.74C7.08678 119.04 6.56922 119.33 6.05168 119.61L24.1748 161.32L27.5797 159.41L7.59524 118.74Z" fill="white"/>
<path d="M12.2077 115.45C11.7537 115.85 11.2725 116.22 10.8003 116.58L34.6346 154.66L37.7217 152.18L12.2077 115.45Z" fill="white"/>
<path d="M15.0675 112.76L44.0136 146.26L46.7194 143.29L16.2932 111.41C15.8937 111.87 15.4942 112.32 15.0675 112.76Z" fill="white"/>
<path d="M19.7709 106.7C19.444 107.22 19.099 107.74 18.7449 108.25L52.0947 136.35L54.3374 132.95L19.7618 106.7H19.7709Z" fill="white"/>
<path d="M21.7414 103.17L58.6686 125.18L60.4028 121.44L22.5313 101.47C22.2862 102.05 22.0229 102.62 21.7505 103.18L21.7414 103.17Z" fill="white"/>
<path d="M24.5104 95.8198C24.347 96.4398 24.1654 97.0398 23.9748 97.6398L63.5623 113.01L64.7427 109.01L24.5014 95.8198H24.5104Z" fill="white"/>
<path d="M25.6545 89.8901C25.5819 90.5301 25.4911 91.1602 25.3913 91.7902L66.6767 100.15L67.276 95.9902L25.6545 89.8901Z" fill="white"/>
<path d="M25.9635 84.7997C25.9635 85.1197 25.9635 85.4397 25.9544 85.7597L67.9299 86.9097V82.6997L25.9544 83.8497C25.9544 84.1697 25.9635 84.4897 25.9635 84.8097V84.7997Z" fill="white"/>
<path d="M66.6767 69.46L25.3913 77.8199C25.4911 78.4499 25.5819 79.07 25.6636 79.71L67.276 73.6199L66.6767 69.46Z" fill="white"/>
<path d="M63.5626 56.5898L23.9751 71.9598C24.1658 72.5598 24.3473 73.1699 24.5108 73.7899L64.7521 60.5999L63.5717 56.5898H63.5626Z" fill="white"/>
<path d="M21.7412 66.43C22.0136 66.99 22.2769 67.5599 22.522 68.1399L60.3936 48.1699L58.6593 44.4199L21.7321 66.43H21.7412Z" fill="white"/>
<path d="M52.0949 33.2598L18.7451 61.3598C19.0992 61.8598 19.4352 62.3898 19.7712 62.9098L54.3467 36.6598L52.104 33.2598H52.0949Z" fill="white"/>
<path d="M15.0675 56.8601C15.4942 57.3001 15.8937 57.7401 16.2932 58.2101L46.7194 26.3301L44.0136 23.3501L15.0675 56.8601Z" fill="white"/>
<path d="M34.6346 14.96L10.8003 53.04C11.2725 53.4 11.7537 53.78 12.2077 54.17L37.7217 17.44L34.6346 14.97V14.96Z" fill="white"/>
<path d="M6.0515 49.9998C6.57813 50.2698 7.09569 50.5598 7.60415 50.8598L27.5886 10.1898L24.1837 8.27979L6.0515 49.9898V49.9998Z" fill="white"/>
<path d="M12.8976 3.5L0.921447 47.82C1.48439 48 2.02919 48.2 2.58305 48.41L16.5386 4.81L12.8976 3.50998V3.5Z" fill="white"/>
<path d="M1.07571 0.719727L-4.46289 46.5497C-3.88179 46.6297 -3.3098 46.7297 -2.73778 46.8497L4.85291 1.37973L1.0848 0.719727H1.07571Z" fill="white"/>
</g>
</svg>
