<svg width="86" height="88" viewBox="0 0 86 88" fill="none" xmlns="http://www.w3.org/2000/svg">
<mask id="mask0_240_28" style="mask-type:alpha" maskUnits="userSpaceOnUse" x="0" y="0" width="86" height="88">
<rect width="86" height="88" fill="#62C0AB"/>
</mask>
<g mask="url(#mask0_240_28)">
<path d="M0.618172 87.5288L46.8488 86.3833C46.8417 86.0651 46.8347 85.7328 46.8347 85.4216C46.8347 85.0964 46.8417 84.7782 46.8488 84.46L0.618161 83.3145L0.618172 87.5288Z" fill="white"/>
<path d="M1.33225 74.2422L47.1669 80.3374C47.2518 79.701 47.3507 79.0788 47.4639 78.4424L1.98985 70.0773L1.33224 74.228L1.33225 74.2422Z" fill="white"/>
<path d="M4.1184 61.2173L48.4398 74.4119C48.6166 73.7967 48.8146 73.1886 49.0267 72.5805L5.42655 57.208L4.12548 61.2102L4.1184 61.2173Z" fill="white"/>
<path d="M8.89848 48.8003L50.6178 68.769C50.8865 68.1892 51.1764 67.6164 51.4804 67.0578L10.8148 45.0456L8.90556 48.7933L8.89848 48.8003Z" fill="white"/>
<path d="M15.5733 37.2748L53.6439 63.5226C54.0045 62.9922 54.3793 62.4761 54.7682 61.974L18.0411 33.8736L15.5733 37.2748Z" fill="white"/>
<path d="M57.4766 58.8273C57.915 58.3606 58.3605 57.9151 58.8272 57.4767L26.9437 23.9669L23.9668 26.9438L57.4766 58.8273Z" fill="white"/>
<path d="M33.8735 18.0411L61.974 54.7683C62.476 54.3794 63.0063 54.0046 63.5225 53.6439L37.2747 15.5733L33.8735 18.0411Z" fill="white"/>
<path d="M45.0457 10.8146L67.0579 51.4803C67.6166 51.1763 68.1893 50.8864 68.7692 50.6177L48.8004 8.89836L45.0528 10.8076L45.0457 10.8146Z" fill="white"/>
<path d="M57.215 5.41936L72.5875 49.0195C73.1956 48.8074 73.8038 48.6094 74.4189 48.4327L61.2243 4.11121L57.2221 5.41228L57.215 5.41936Z" fill="white"/>
<path d="M70.0771 1.99018L78.4351 47.4572C79.0715 47.344 79.6937 47.245 80.3301 47.1602L74.2278 1.33258L70.0771 1.99018Z" fill="white"/>
<path d="M83.3145 0.618077L84.4601 46.8487C84.7783 46.8417 85.0965 46.8346 85.4217 46.8346C85.747 46.8346 86.0652 46.8417 86.3834 46.8487L87.5289 0.618077H83.3145Z" fill="white"/>
</g>
</svg>
